<svg xmlns="http://www.w3.org/2000/svg" width="512" height="512" viewBox="0 0 2048 2048" version="1.1">
  <path fill="rgb(0,0,0)" d="M0 0L2048 0L2048 2048L0 2048Z"/>
  <path fill="rgb(0,0,0)" d="M828.249 1280.73C833.373 1259 841.593 1239.71 847.539 1218.64C858.63 1179.35 872.185 1142.16 885.378 1103.68L981.116 820.618L1087.22 496.962C1093.71 477.497 1100.46 458.114 1106.13 438.391C1107.98 431.928 1109.95 423.456 1113.52 417.892L1115.22 417.804C1121.43 425.201 1141.67 548.969 1144.76 567.598C1150.75 603.639 1160.25 645.889 1166.81 682.126C1187.14 800.913 1208.59 919.505 1231.16 1037.89L1276.46 1267.84C1282.91 1301.98 1291.79 1342.84 1296.05 1376.92C1310.53 1324.9 1334.42 1272.73 1353.97 1222.45C1369.3 1183.01 1381.65 1142.34 1398.51 1103.18C1407.42 1082.47 1413.27 1056.29 1420.77 1034.73C1425.1 1022.27 1425.33 1005.67 1430.96 993.157C1435.45 982.14 1445.88 972.819 1451.74 962.513C1457.36 952.625 1461.6 941.416 1466.47 931.018C1475.14 949.884 1486.88 964.789 1495.05 981.483C1515.43 1023.13 1533.74 1067.61 1551.25 1110.56C1558.14 1127.45 1570.56 1153.27 1575.63 1169.4C1581.47 1162.86 1594.87 1147.97 1602.86 1144.61C1604.86 1144.35 1607.34 1143.37 1608.96 1142.26C1619.07 1135.28 1625.86 1145.13 1637.22 1139.9C1642.4 1143.4 1645.78 1144.29 1652.04 1144.84C1690.74 1148.23 1730.14 1149.16 1768.96 1150.61C1822.08 1152.59 1874.63 1156.84 1927.72 1158.81C1942.66 1159.37 2000.01 1159.22 2010.98 1162.64C2023.33 1163.37 2035.67 1164.2 2048 1165.1L2048 2048L0 2048L0 1169.84C35.8732 1163.71 58.2274 1160.78 94.9969 1159.14A4239 4239 0 0 1 173.09 1155.72C213.961 1154.17 254.822 1152.35 295.669 1150.25L356.573 1147.92C368.805 1147.46 386.292 1147.23 398.024 1145.1C408.752 1136 437.715 1096.51 445.119 1083.52C456.428 1098.95 466.267 1115.51 477.208 1131.26C486.138 1144.11 496.783 1156.36 504.948 1169.52C519.622 1145.27 533.934 1110.57 545.696 1083.91A6004 6004 0 0 0 607.252 941.336L664.996 802.922C674.369 780.619 687.842 753.081 695.346 731.089C700.839 744.603 703.984 763.348 707.245 777.84L726.799 865.519L778.159 1079.79C789.243 1127.87 799.398 1175.42 812.756 1223.1C817.951 1241.64 822.381 1262.71 828.249 1280.73Z"/>
  <path fill="rgb(254,146,42)" d="M828.249 1280.73C833.373 1259 841.593 1239.71 847.539 1218.64C858.63 1179.35 872.185 1142.16 885.378 1103.68L981.116 820.618L1087.22 496.962C1093.71 477.497 1100.46 458.114 1106.13 438.391C1107.98 431.928 1109.95 423.456 1113.52 417.892L1115.22 417.804C1121.43 425.201 1141.67 548.969 1144.76 567.598C1150.75 603.639 1160.25 645.889 1166.81 682.126C1187.14 800.913 1208.59 919.505 1231.16 1037.89L1276.46 1267.84C1282.91 1301.98 1291.79 1342.84 1296.05 1376.92C1310.53 1324.9 1334.42 1272.73 1353.97 1222.45C1369.3 1183.01 1381.65 1142.34 1398.51 1103.18C1407.42 1082.47 1413.27 1056.29 1420.77 1034.73C1425.1 1022.27 1425.33 1005.67 1430.96 993.157C1435.45 982.14 1445.88 972.819 1451.74 962.513C1457.36 952.625 1461.6 941.416 1466.47 931.018C1475.14 949.884 1486.88 964.789 1495.05 981.483C1515.43 1023.13 1533.74 1067.61 1551.25 1110.56C1558.14 1127.45 1570.56 1153.27 1575.63 1169.4C1581.47 1162.86 1594.87 1147.97 1602.86 1144.61C1604.86 1144.35 1607.34 1143.37 1608.96 1142.26C1619.07 1135.28 1625.86 1145.13 1637.22 1139.9C1642.4 1143.4 1645.78 1144.29 1652.04 1144.84C1690.74 1148.23 1730.14 1149.16 1768.96 1150.61C1822.08 1152.59 1874.63 1156.84 1927.72 1158.81C1942.66 1159.37 2000.01 1159.22 2010.98 1162.64C2023.33 1163.37 2035.67 1164.2 2048 1165.1L2048 1170.77C2042.2 1171.72 2016.15 1175.31 2011.13 1174.8C1985.25 1181.23 1928.51 1178.75 1898.91 1180.86C1864.87 1183.29 1827.87 1185.22 1793.78 1186.67L1668.9 1192.49C1649.74 1193.45 1629.82 1193.86 1610.77 1195.28C1598.92 1203.46 1578.41 1234.38 1567.43 1247.95C1559.19 1227.45 1545.91 1206.52 1537.18 1185.88C1523.12 1152.66 1509.09 1119.66 1493.7 1087.01C1486.01 1070.69 1480.39 1055.26 1470.05 1040.22C1465.07 1071.4 1447.05 1111.88 1437.74 1144.27C1425.34 1187.4 1408.67 1231.98 1394.35 1274.71L1321.98 1490.11C1312.15 1518.88 1302.17 1547.6 1292.03 1576.27C1286.09 1593.14 1279.68 1609.3 1275.08 1626.59C1268.1 1597.05 1261.7 1562.26 1255.65 1532.29L1221.53 1361.31L1138.36 957.436C1126.29 901.137 1117.08 844.295 1102.37 788.597C1099.24 776.779 1096.28 764.963 1093.07 753.154C1088.41 788.735 1074.13 811.461 1065.29 844.226C1052.77 890.673 1037.21 933.015 1021.99 978.441L955.968 1176.47C940.166 1223.68 923.821 1270.84 909.98 1318.63C905.289 1334.83 900.45 1351.09 895.359 1367.16L844.786 1521.64C834.059 1554.33 825.918 1583.67 813.957 1616.62L807.274 1616.29C800.668 1585.29 794.303 1554.24 788.181 1523.14C783.235 1496.64 779.222 1469.49 774.011 1443.19L674.958 956.417C661.27 986.637 637.67 1017.62 622.603 1047.98C602.62 1088.25 578.567 1127.02 557.805 1166.9C542.598 1196.12 530.392 1224.52 511.994 1251.98C500.25 1239.99 485.535 1225.55 476.939 1211.27C465.774 1192.71 452.464 1172.55 442.949 1153.22C435.613 1162.98 419.275 1187.1 414.573 1197.85C367.736 1188.56 302.298 1187.86 253.924 1186.06L71.7378 1178.8C42.0107 1177.85 29.3372 1170.97 0 1175.34L0 1169.84C35.8732 1163.71 58.2274 1160.78 94.9969 1159.14A4239 4239 0 0 1 173.09 1155.72C213.961 1154.17 254.822 1152.35 295.669 1150.25L356.573 1147.92C368.805 1147.46 386.292 1147.23 398.024 1145.1C408.752 1136 437.715 1096.51 445.119 1083.52C456.428 1098.95 466.267 1115.51 477.208 1131.26C486.138 1144.11 496.783 1156.36 504.948 1169.52C519.622 1145.27 533.934 1110.57 545.696 1083.91A6004 6004 0 0 0 607.252 941.336L664.996 802.922C674.369 780.619 687.842 753.081 695.346 731.089C700.839 744.603 703.984 763.348 707.245 777.84L726.799 865.519L778.159 1079.79C789.243 1127.87 799.398 1175.42 812.756 1223.1C817.951 1241.64 822.381 1262.71 828.249 1280.73Z"/>
</svg>
